<?xml version="1.0" standalone="no"?>
<!DOCTYPE svg PUBLIC "-//W3C//DTD SVG 20010904//EN"
 "http://www.w3.org/TR/2001/REC-SVG-20010904/DTD/svg10.dtd">
<svg version="1.0" xmlns="http://www.w3.org/2000/svg"
 width="1024.000000pt" height="1024.000000pt" viewBox="0 0 1024.000000 1024.000000"
 preserveAspectRatio="xMidYMid meet">

<g transform="translate(0.000000,1024.000000) scale(0.100000,-0.100000)"
fill="#000000" stroke="none">
<path d="M2135 9613 c-391 -33 -698 -158 -962 -392 -307 -272 -487 -613 -538
-1021 -22 -172 -22 -5988 0 -6160 84 -665 553 -1203 1185 -1363 104 -26 167
-36 290 -47 164 -14 5887 -14 6038 1 399 37 714 181 991 452 216 211 363 471
435 768 47 194 46 97 46 3269 0 3172 1 3075 -46 3269 -132 545 -536 984 -1054
1145 -128 40 -140 44 -200 55 -154 29 -345 31 -3215 29 -1612 -1 -2948 -3
-2970 -5z m5557 -2424 c121 -24 204 -67 300 -158 100 -94 152 -194 177 -342
20 -114 2 -215 -62 -349 -28 -60 -137 -172 -1453 -1495 -1701 -1710 -1655
-1664 -1724 -1708 -109 -68 -159 -81 -315 -81 -128 0 -146 3 -208 27 -37 14
-91 42 -120 61 -66 44 -1936 1916 -1971 1974 -55 88 -95 221 -96 314 0 76 27
187 67 268 26 55 57 96 112 151 121 122 243 172 416 172 147 0 253 -36 363
-122 28 -23 361 -351 738 -731 378 -379 692 -690 698 -690 6 0 592 581 1301
1291 720 721 1314 1307 1345 1328 126 86 288 119 432 90z"/>
</g>
</svg>
